<?xml version="1.0" encoding="UTF-8" standalone="no"?>
<!-- Created with Inkscape (http://www.inkscape.org/) -->

<svg
   width="192mm"
   height="192mm"
   viewBox="0 0 192 192"
   version="1.1"
   id="svg1"
   inkscape:version="1.3 (0e150ed6c4, 2023-07-21)"
   sodipodi:docname="visualcircle_logo.svg"
   inkscape:export-filename="visualcircle_logo.png"
   inkscape:export-xdpi="96"
   inkscape:export-ydpi="96"
   xmlns:inkscape="http://www.inkscape.org/namespaces/inkscape"
   xmlns:sodipodi="http://sodipodi.sourceforge.net/DTD/sodipodi-0.dtd"
   xmlns:xlink="http://www.w3.org/1999/xlink"
   xmlns="http://www.w3.org/2000/svg"
   xmlns:svg="http://www.w3.org/2000/svg">
  <sodipodi:namedview
     id="namedview1"
     pagecolor="#ffffff"
     bordercolor="#000000"
     borderopacity="0.25"
     inkscape:showpageshadow="2"
     inkscape:pageopacity="0.0"
     inkscape:pagecheckerboard="0"
     inkscape:deskcolor="#d1d1d1"
     inkscape:document-units="mm"
     inkscape:zoom="1"
     inkscape:cx="247.5"
     inkscape:cy="409.5"
     inkscape:window-width="2560"
     inkscape:window-height="1377"
     inkscape:window-x="-8"
     inkscape:window-y="-8"
     inkscape:window-maximized="1"
     inkscape:current-layer="layer4" />
  <defs
     id="defs1">
    <linearGradient
       id="linearGradient71"
       inkscape:collect="always">
      <stop
         style="stop-color:#5403bc;stop-opacity:1;"
         offset="0"
         id="stop71" />
      <stop
         style="stop-color:#7f57f1;stop-opacity:1;"
         offset="1"
         id="stop72" />
    </linearGradient>
    <linearGradient
       inkscape:collect="always"
       xlink:href="#linearGradient71"
       id="linearGradient72"
       x1="245.99963"
       y1="52.203056"
       x2="245.99963"
       y2="332.02112"
       gradientUnits="userSpaceOnUse"
       gradientTransform="matrix(0.37499998,0,0,0.375,-6.2501651,-32.5001)" />
  </defs>
  <g
     inkscape:label="Letter V base"
     inkscape:groupmode="layer"
     id="layer1"
     style="display:none">
    <path
       id="path3"
       style="display:inline;fill:#000000;stroke-width:0.264583"
       inkscape:transform-center-y="46.666666"
       d="M 38.020162,45.266543 H 12.483025 L 86.967343,174.27693 161.45118,303.28684 235.9355,174.27693 310.41934,45.266543 H 284.8822 L 235.9355,130.04472 161.45118,259.0551 86.967343,130.04472 Z"
       transform="matrix(1.0740554,0,0,1.0851858,82.592365,46.877215)" />
    <path
       id="path8"
       style="display:none;fill:#000000;stroke-width:0.264583"
       inkscape:transform-center-y="46.666666"
       d="M 38.020162,45.266543 86.967343,130.04472 161.45118,259.0551 235.9355,130.04472 284.8822,45.266543 H 161.45118 Z"
       transform="matrix(1.0740554,0,0,1.0851858,82.592365,46.877215)"
       sodipodi:insensitive="true" />
  </g>
  <g
     inkscape:groupmode="layer"
     id="layer3"
     inkscape:label="Letter C base"
     style="display:none">
    <path
       id="path9"
       style="display:none;fill:#000000;stroke-width:0.2312"
       d="m 255.99988,103.99985 a 152,152 0 0 0 -21.63176,1.5472 152,152 0 0 0 -21.19147,4.61005 152,152 0 0 0 -20.31969,7.57887 152,152 0 0 0 -19.03449,10.39368 152,152 0 0 0 -17.36122,12.99662 152,152 0 0 0 -15.33498,15.33498 152,152 0 0 0 -12.99662,17.36122 152,152 0 0 0 -10.39368,19.03449 152,152 0 0 0 -7.57887,20.31969 152,152 0 0 0 -4.61005,21.19147 152,152 0 0 0 -1.5472,21.63176 152,152 0 0 0 1.5472,21.63175 152,152 0 0 0 4.61005,21.19147 152,152 0 0 0 7.57887,20.32021 152,152 0 0 0 10.39368,19.03398 152,152 0 0 0 12.99662,17.36173 152,152 0 0 0 15.33498,15.33498 152,152 0 0 0 17.36122,12.99663 152,152 0 0 0 19.03449,10.39368 152,152 0 0 0 20.31969,7.57886 152,152 0 0 0 21.19147,4.60954 152,152 0 0 0 21.63176,1.54719 152,152 0 0 0 21.63175,-1.54719 152,152 0 0 0 21.19147,-4.60954 152,152 0 0 0 20.32021,-7.57886 152,152 0 0 0 19.03398,-10.39368 152,152 0 0 0 17.36173,-12.99663 152,152 0 0 0 15.33498,-15.33498 152,152 0 0 0 12.99663,-17.36173 152,152 0 0 0 10.39368,-19.03398 152,152 0 0 0 7.57886,-20.32021 152,152 0 0 0 4.60954,-21.19147 152,152 0 0 0 1.54719,-21.63175 152,152 0 0 0 -0.18293,-7.45794 152,152 0 0 0 -0.54881,-7.44038 152,152 0 0 0 -0.91312,-7.40471 152,152 0 0 0 -1.27589,-7.35046 152,152 0 0 0 -1.63453,-7.27914 152,152 0 0 0 -1.98954,-7.19078 152,152 0 0 0 -2.34042,-7.0838 152,152 0 0 0 -2.68511,-6.9603 152,152 0 0 0 -3.02307,-6.82077 152,152 0 0 0 -3.35432,-6.66368 152,152 0 0 0 -3.67729,-6.49159 152,152 0 0 0 -3.99149,-6.30298 152,152 0 0 0 -4.29586,-6.09988 152,152 0 0 0 -4.5899,-5.8813 152,152 0 0 0 -4.87309,-5.64927 152,152 0 0 0 -5.14439,-5.40328 152,152 0 0 0 -5.40329,-5.14439 152,152 0 0 0 -5.64927,-4.87257 152,152 0 0 0 -5.88129,-4.59042 152,152 0 0 0 -6.09937,-4.29586 152,152 0 0 0 -6.30349,-3.99097 152,152 0 0 0 -6.49108,-3.6773 152,152 0 0 0 -6.66419,-3.35432 152,152 0 0 0 -6.82026,-3.02358 152,152 0 0 0 -6.96081,-2.68511 152,152 0 0 0 -7.08381,-2.33991 152,152 0 0 0 -7.19026,-1.99006 152,152 0 0 0 -7.27914,-1.63452 152,152 0 0 0 -7.35097,-1.27538 152,152 0 0 0 -7.4042,-0.91312 152,152 0 0 0 -7.44037,-0.54881 152,152 0 0 0 -7.45846,-0.18345 z"
       sodipodi:insensitive="true" />
    <path
       id="path10"
       style="display:inline;fill:#000000;stroke-width:0.2312"
       d="M 255.99988,95.999825 A 160,160 0 0 0 95.999825,255.99988 160,160 0 0 0 255.99988,415.99993 160,160 0 0 0 415.99993,255.99988 160,160 0 0 0 255.99988,95.999825 Z m 0,8.000025 a 152,152 0 0 1 7.45846,0.18345 152,152 0 0 1 7.44037,0.54881 152,152 0 0 1 7.4042,0.91312 152,152 0 0 1 7.35097,1.27538 152,152 0 0 1 7.27914,1.63452 152,152 0 0 1 7.19026,1.99006 152,152 0 0 1 7.08381,2.33991 152,152 0 0 1 6.96081,2.68511 152,152 0 0 1 6.82026,3.02358 152,152 0 0 1 6.66419,3.35432 152,152 0 0 1 6.49108,3.6773 152,152 0 0 1 6.30349,3.99097 152,152 0 0 1 6.09937,4.29586 152,152 0 0 1 5.88129,4.59042 152,152 0 0 1 5.64927,4.87257 152,152 0 0 1 5.40329,5.14439 152,152 0 0 1 5.14439,5.40328 152,152 0 0 1 4.87309,5.64927 152,152 0 0 1 4.5899,5.8813 152,152 0 0 1 4.29586,6.09988 152,152 0 0 1 3.99149,6.30298 152,152 0 0 1 3.67729,6.49159 152,152 0 0 1 3.35432,6.66368 152,152 0 0 1 3.02307,6.82077 152,152 0 0 1 2.68511,6.9603 152,152 0 0 1 2.34042,7.0838 152,152 0 0 1 1.98954,7.19078 152,152 0 0 1 1.63453,7.27914 152,152 0 0 1 1.27589,7.35046 152,152 0 0 1 0.91312,7.40471 152,152 0 0 1 0.54881,7.44038 152,152 0 0 1 0.18293,7.45794 152,152 0 0 1 -1.54719,21.63175 152,152 0 0 1 -4.60954,21.19147 152,152 0 0 1 -7.57886,20.32021 152,152 0 0 1 -10.39368,19.03398 152,152 0 0 1 -12.99663,17.36173 152,152 0 0 1 -15.33498,15.33498 152,152 0 0 1 -17.36173,12.99663 152,152 0 0 1 -19.03398,10.39368 152,152 0 0 1 -20.32021,7.57886 152,152 0 0 1 -21.19147,4.60954 152,152 0 0 1 -21.63175,1.54719 152,152 0 0 1 -21.63176,-1.54719 152,152 0 0 1 -21.19147,-4.60954 152,152 0 0 1 -20.31969,-7.57886 152,152 0 0 1 -19.03449,-10.39368 152,152 0 0 1 -17.36122,-12.99663 152,152 0 0 1 -15.33498,-15.33498 152,152 0 0 1 -12.99662,-17.36173 152,152 0 0 1 -10.39368,-19.03398 152,152 0 0 1 -7.57887,-20.32021 152,152 0 0 1 -4.61005,-21.19147 152,152 0 0 1 -1.5472,-21.63175 152,152 0 0 1 1.5472,-21.63176 152,152 0 0 1 4.61005,-21.19147 152,152 0 0 1 7.57887,-20.31969 152,152 0 0 1 10.39368,-19.03449 152,152 0 0 1 12.99662,-17.36122 152,152 0 0 1 15.33498,-15.33498 152,152 0 0 1 17.36122,-12.99662 152,152 0 0 1 19.03449,-10.39368 152,152 0 0 1 20.31969,-7.57887 152,152 0 0 1 21.19147,-4.61005 152,152 0 0 1 21.63176,-1.5472 z" />
  </g>
  <g
     inkscape:groupmode="layer"
     id="layer4"
     inkscape:label="Letter V"
     transform="matrix(1.5999995,0,0,1.6000002,-41.599542,32.80026)">
    <path
       id="path28"
       style="display:inline;fill:url(#linearGradient72);fill-opacity:1;stroke-width:0.10725;stroke-dasharray:none"
       inkscape:transform-center-y="17.499997"
       d="M 25.999724,-13.000159 39.05455,9.8459275 a 59.999998,60 0 0 1 1.60029,-2.137661 59.999998,60 0 0 1 4.749708,-4.74971 L 36.285336,-13.000159 Z M 46.943601,5.6514175 a 56.999998,57 0 0 0 -4.021459,4.021459 56.999998,57 0 0 0 -2.24928,3.0046615 L 55.999833,39.499933 85.999745,91.999825 115.99985,39.499933 131.39833,12.552547 a 56.999998,57 0 0 0 -1.33693,-1.713075 56.999998,57 0 0 0 -1.82741,-2.1184775 56.999998,57 0 0 0 -1.92915,-2.02623 56.999998,57 0 0 0 -1.19488,-1.137528 L 115.99985,21.499867 85.999745,73.999955 55.999833,21.499867 Z m 79.698819,-2.77619 a 59.999998,60 0 0 1 1.78381,1.698345 59.999998,60 0 0 1 2.03069,2.132817 59.999998,60 0 0 1 1.92352,2.229904 59.999998,60 0 0 1 0.62593,0.802084 l 12.99339,-22.7385365 h -10.28561 z"
       inkscape:transform-center-x="3.6000083e-06" />
  </g>
  <g
     inkscape:groupmode="layer"
     id="layer6"
     inkscape:label="Big Circle"
     style="display:none">
    <path
       id="path32"
       style="display:inline;fill:#5403bc;fill-opacity:1;stroke-width:0.273503"
       d="m 265.99978,234.00019 a 32,32 0 0 0 -31.99959,31.99959 32,32 0 0 0 31.99959,32.00012 32,32 0 0 0 32.00012,-32.00012 32,32 0 0 0 -32.00012,-31.99959 z m 0,8.00003 a 24,24 0 0 1 1.17771,0.0289 24,24 0 0 1 1.17512,0.0863 24,24 0 0 1 1.16892,0.14418 24,24 0 0 1 1.16066,0.20154 24,24 0 0 1 1.14928,0.25786 24,24 0 0 1 1.13533,0.3142 24,24 0 0 1 1.1188,0.36948 24,24 0 0 1 1.09864,0.42427 24,24 0 0 1 1.07693,0.47749 24,24 0 0 1 1.05214,0.52916 24,24 0 0 1 1.02526,0.58085 24,24 0 0 1 0.99528,0.63045 24,24 0 0 1 0.96274,0.67799 24,24 0 0 1 0.92862,0.72503 24,24 0 0 1 0.89245,0.76946 24,24 0 0 1 0.85266,0.81183 24,24 0 0 1 0.81236,0.85318 24,24 0 0 1 0.76946,0.89194 24,24 0 0 1 0.72502,0.92862 24,24 0 0 1 0.678,0.96325 24,24 0 0 1 0.63045,0.99529 24,24 0 0 1 0.58032,1.02474 24,24 0 0 1 0.52969,1.05265 24,24 0 0 1 0.47749,1.07694 24,24 0 0 1 0.42374,1.09864 24,24 0 0 1 0.36949,1.11879 24,24 0 0 1 0.31419,1.13534 24,24 0 0 1 0.25839,1.14928 24,24 0 0 1 0.20153,1.16065 24,24 0 0 1 0.14418,1.16892 24,24 0 0 1 0.0863,1.17513 24,24 0 0 1 0.0289,1.17718 24,24 0 0 1 -0.24391,3.41582 24,24 0 0 1 -0.72812,3.34605 24,24 0 0 1 -1.19683,3.20807 24,24 0 0 1 -1.64073,3.0055 24,24 0 0 1 -2.05207,2.74143 24,24 0 0 1 -2.42156,2.42156 24,24 0 0 1 -2.74143,2.05207 24,24 0 0 1 -3.0055,1.64073 24,24 0 0 1 -3.20807,1.19683 24,24 0 0 1 -3.34605,0.72812 24,24 0 0 1 -3.41582,0.24391 24,24 0 0 1 -3.41529,-0.24391 24,24 0 0 1 -3.34605,-0.72812 24,24 0 0 1 -3.20859,-1.19683 24,24 0 0 1 -3.00498,-1.64073 24,24 0 0 1 -2.74144,-2.05207 24,24 0 0 1 -2.42156,-2.42156 24,24 0 0 1 -2.05207,-2.74143 24,24 0 0 1 -1.64072,-3.0055 24,24 0 0 1 -1.19683,-3.20807 24,24 0 0 1 -0.72812,-3.34605 24,24 0 0 1 -0.24391,-3.41582 24,24 0 0 1 0.24391,-3.41529 24,24 0 0 1 0.72812,-3.34605 24,24 0 0 1 1.19683,-3.20859 24,24 0 0 1 1.64072,-3.00498 24,24 0 0 1 2.05207,-2.74144 24,24 0 0 1 2.42156,-2.42156 24,24 0 0 1 2.74144,-2.05207 24,24 0 0 1 3.00498,-1.64072 24,24 0 0 1 3.20859,-1.19683 24,24 0 0 1 3.34605,-0.72812 24,24 0 0 1 3.41529,-0.24391 z" />
  </g>
</svg>
